<?xml version="1.0" encoding="UTF-8"?>
<svg width="151px" height="49px" viewBox="0 0 151 49" version="1.1" xmlns="http://www.w3.org/2000/svg" xmlns:xlink="http://www.w3.org/1999/xlink">
    <!-- Generator: Sketch 50.2 (55047) - http://www.bohemiancoding.com/sketch -->
    <title>logo-dark</title>
    <desc>Created with Sketch.</desc>
    <defs/>
    <g id="logo-dark" stroke="none" stroke-width="1" fill="none" fill-rule="evenodd">
        <g id="Group" transform="translate(1.000000, 1.000000)" fill="#000000">
            <path d="M38.8479955,15.3309324 L35.9273385,10.142414 L41.5857461,10.1440899 C41.7369154,10.1440899 41.9131403,10.2446425 41.9958241,10.3803887 C42.0860245,10.5287039 42.5453786,11.2862007 43.0974388,12.1962025 C43.7580735,13.2855233 44.5481626,14.5876805 45,15.3309324 L38.8479955,15.3309324 Z M28.3822383,46.7544839 C28.2452673,47 28.0673719,47 28.0097439,47 L25.6979399,47 C24.4743875,46.9991621 23.0629176,46.9983241 22.2227171,46.9983241 L31.2135301,30.8571047 C31.363029,30.5889642 31.3596882,30.2621679 31.204343,29.9973792 C31.0489978,29.7325905 30.7667038,29.5700303 30.4610245,29.5700303 L30.4601893,29.5700303 L15.136971,29.5901408 L12.0902004,24.3144767 L34.4089644,24.3144767 C34.4106347,24.3144767 34.4123051,24.3136388 34.4148107,24.3136388 C34.4173163,24.3136388 34.4189866,24.3144767 34.420657,24.3144767 C34.4331849,24.3144767 34.4448775,24.310287 34.4574053,24.3094491 C34.5075167,24.3060973 34.5576281,24.3010697 34.6052339,24.2893386 C34.6419822,24.2809592 34.6778953,24.269228 34.7138085,24.255821 C34.7330178,24.2482796 34.751392,24.2407381 34.7697661,24.2323587 C34.936804,24.1577821 35.0846325,24.035443 35.1790089,23.8619897 L38.8580178,17.0604386 L44.9315145,17.0604386 L28.3822383,46.7544839 Z M20.7252227,46.1411125 C20.5297884,45.8193439 20.2758909,45.4012123 19.9994432,44.9462114 C19.0698775,43.4119451 17.8788976,41.447816 17.7444321,41.2324657 C17.6993318,41.159565 17.6784521,40.9819219 17.7728285,40.8126582 C17.9883073,40.4255304 22.0573497,33.0960777 23.0487194,31.3095917 L28.9902561,31.3020503 L20.7252227,46.1411125 Z M10.592706,36.0397575 L7.63947661,30.7925833 L10.6160913,25.2127474 L13.6018931,30.3819932 C12.6739978,32.1290961 11.2257795,34.8540738 10.592706,36.0397575 Z M6.62889755,36.8567481 C5.12555679,36.8567481 3.63056793,36.8559101 3.41091314,36.8559101 L3.41007795,36.8559101 C3.26308463,36.8559101 3.08518931,36.7528436 3.00417595,36.6204493 L2.04287305,35.0359066 C1.35801782,33.9063648 0.4844098,32.4659476 0,31.6690676 L6.15200445,31.6690676 L9.07182628,36.857586 C8.43457684,36.857586 7.53257238,36.8567481 6.62889755,36.8567481 Z M16.6177617,0.246354074 C16.7547327,0 16.9317929,0 16.9894209,0 L22.8015033,0.000837939027 L13.7864699,16.1420574 C13.7789532,16.1554644 13.7747773,16.1697094 13.7680958,16.1839544 C13.7547327,16.2107684 13.7430401,16.2384204 13.7321826,16.2669103 C13.7229955,16.2945623 13.7146437,16.3213764 13.7071269,16.3490283 C13.7004454,16.3750045 13.6945991,16.4009806 13.6904232,16.4269567 C13.685412,16.4596363 13.6820713,16.491478 13.6812361,16.5233197 C13.6804009,16.5375646 13.6770601,16.5509717 13.6770601,16.5660546 C13.6770601,16.5769478 13.6795657,16.587003 13.6804009,16.5978962 C13.6812361,16.6297379 13.6845768,16.6607417 13.689588,16.6917454 C13.6929287,16.7177215 13.6971047,16.7436976 13.7037862,16.7696737 C13.7104677,16.7973257 13.7196548,16.8233018 13.7288419,16.8501159 C13.738029,16.876092 13.747216,16.902906 13.7589087,16.9280442 C13.7706013,16.9531824 13.7839644,16.9766447 13.7981626,17.0009449 C13.8123608,17.0244072 13.8257238,17.0478695 13.8424276,17.0704938 C13.8582962,17.0931182 13.8766704,17.1140667 13.8958797,17.1358531 C13.9142539,17.1559636 13.9326281,17.1769121 13.9526726,17.1961847 C13.9727171,17.2146194 13.9935969,17.2305402 14.0153118,17.247299 C14.0395323,17.2665716 14.0637528,17.2841683 14.0896437,17.3000891 C14.0996659,17.3059547 14.1071826,17.3134962 14.1172049,17.3193617 C14.1272272,17.3252273 14.1380846,17.3269032 14.1489421,17.3319308 C14.1932071,17.3545552 14.2399777,17.3738278 14.2892539,17.3889107 C14.3067929,17.3939383 14.3234967,17.4006418 14.3418708,17.4048315 C14.40451,17.4199144 14.4688196,17.4291318 14.5364699,17.4291318 C14.5373051,17.4291318 14.5373051,17.4299697 14.5381403,17.4299697 L14.5389755,17.4299697 L14.5398107,17.4299697 L14.9214922,17.4291318 C14.9231626,17.4291318 14.924833,17.4299697 14.9265033,17.4299697 L14.9273385,17.4299697 L29.8655345,17.4098592 C30.2605791,18.0969692 30.9988864,19.3899091 31.627784,20.490961 C32.1105234,21.3372794 32.5097439,22.0352826 32.8237751,22.5841326 L10.5943764,22.5841326 C10.5843541,22.5841326 10.575167,22.5874844 10.56598,22.5883223 C10.2636414,22.59335 9.97216036,22.7533963 9.81848552,23.0408094 L6.13864143,29.9387235 L0.0693207127,29.9387235 C2.7185412,25.1842574 16.4407016,0.563095026 16.6177617,0.246354074 Z M24.2873051,0.878998039 L24.8268374,1.76721341 C25.7747773,3.33080763 27.1135857,5.53793903 27.2555679,5.76753432 C27.3006682,5.84043502 27.3215479,6.01724015 27.2263363,6.18734177 L21.9504454,15.6904083 L16.0114143,15.6979497 L24.2873051,0.878998039 Z M34.4047884,10.9543769 L37.3596882,16.2040649 L34.3471604,21.7721697 C33.988029,21.1453913 33.5420379,20.3644322 33.123608,19.6312355 C32.2967706,18.1824389 31.6937639,17.1274737 31.3538419,16.5375646 C31.9961024,15.3619362 33.6940423,12.2515065 34.4047884,10.9543769 Z" id="Fill-1"/>
            <path d="M51.12,37 L51.12,24.06 L53.26,24.06 L53.26,29.14 C53.56,28.74 54.38,27.96 55.76,27.96 C57.44,27.96 58.88,28.68 58.88,31.54 L58.88,37 L56.74,37 L56.74,31.96 C56.74,30.52 56.44,29.74 55.14,29.74 C54.18,29.74 53.64,30.12 53.26,30.54 L53.26,37 L51.12,37 Z M64.8,37.2 C63.08,37.2 61.68,36.44 61.68,34.68 C61.68,32.64 63.5,32.1 65.32,32.1 C66.24,32.1 67.22,32.26 67.74,32.42 L67.74,31.7 C67.74,30.56 67.54,29.66 65.9,29.66 C64.66,29.66 63.94,30.16 63.94,31.2 L61.92,31.2 C61.92,28.78 63.9,27.96 66.04,27.96 C68.34,27.96 69.88,28.94 69.88,31.42 L69.88,35.08 C69.88,35.42 70,35.54 70.36,35.54 C70.6,35.54 70.96,35.48 71.2,35.42 L71.2,36.84 C70.84,37 70.16,37.2 69.5,37.2 C68.38,37.2 68.06,36.62 68.06,35.96 L68.06,35.8 C67.6,36.38 66.62,37.2 64.8,37.2 Z M65.3,35.6 C66.42,35.6 67.3,35.22 67.74,34.86 L67.74,33.74 C67.36,33.64 66.54,33.56 65.78,33.56 C64.6,33.56 63.82,33.78 63.82,34.62 C63.82,35.3 64.32,35.6 65.3,35.6 Z M73.52,37 L73.52,28.16 L75.38,28.16 L75.38,29.36 C75.8,28.78 76.62,27.96 78.12,27.96 C79.8,27.96 81.28,28.68 81.28,31.54 L81.28,37 L79.14,37 L79.14,31.96 C79.14,30.52 78.84,29.74 77.54,29.74 C76.58,29.74 76.04,30.12 75.66,30.54 L75.66,37 L73.52,37 Z M87.72,37.2 C85.76,37.2 84.02,35.84 84.02,32.58 C84.02,29.32 85.8,27.96 87.72,27.96 C89.12,27.96 90,28.68 90.36,29.08 L90.36,24.06 L92.5,24.06 L92.5,37 L90.64,37 L90.64,35.84 C90.18,36.46 89.22,37.2 87.72,37.2 Z M88.38,35.42 C89.28,35.42 89.94,35.04 90.36,34.64 L90.36,30.52 C89.94,30.12 89.28,29.74 88.38,29.74 C86.86,29.74 86.22,30.88 86.22,32.58 C86.22,34.28 86.86,35.42 88.38,35.42 Z M99.74,37.2 C97.38,37.2 95.44,36.4 95.38,34.22 L97.48,34.22 C97.56,35.16 98.52,35.56 99.86,35.56 C101.08,35.56 102.04,35.38 102.04,34.56 C102.04,33.68 100.7,33.54 98.92,33.22 C97.2,32.92 95.54,32.42 95.54,30.56 C95.54,28.74 97.42,27.96 99.6,27.96 C101.78,27.96 103.64,28.54 103.8,30.76 L101.7,30.76 C101.56,29.8 100.54,29.6 99.62,29.6 C98.4,29.6 97.72,29.84 97.72,30.44 C97.72,31.24 98.78,31.38 100.88,31.72 C102.52,31.98 104.24,32.52 104.24,34.34 C104.24,36.48 102.22,37.2 99.74,37.2 Z M107.12,37 L107.12,24.06 L109.26,24.06 L109.26,29.14 C109.56,28.74 110.38,27.96 111.76,27.96 C113.44,27.96 114.88,28.68 114.88,31.54 L114.88,37 L112.74,37 L112.74,31.96 C112.74,30.52 112.44,29.74 111.14,29.74 C110.18,29.74 109.64,30.12 109.26,30.54 L109.26,37 L107.12,37 Z M120.8,37.2 C119.08,37.2 117.68,36.44 117.68,34.68 C117.68,32.64 119.5,32.1 121.32,32.1 C122.24,32.1 123.22,32.26 123.74,32.42 L123.74,31.7 C123.74,30.56 123.54,29.66 121.9,29.66 C120.66,29.66 119.94,30.16 119.94,31.2 L117.92,31.2 C117.92,28.78 119.9,27.96 122.04,27.96 C124.34,27.96 125.88,28.94 125.88,31.42 L125.88,35.08 C125.88,35.42 126,35.54 126.36,35.54 C126.6,35.54 126.96,35.48 127.2,35.42 L127.2,36.84 C126.84,37 126.16,37.2 125.5,37.2 C124.38,37.2 124.06,36.62 124.06,35.96 L124.06,35.8 C123.6,36.38 122.62,37.2 120.8,37.2 Z M121.3,35.6 C122.42,35.6 123.3,35.22 123.74,34.86 L123.74,33.74 C123.36,33.64 122.54,33.56 121.78,33.56 C120.6,33.56 119.82,33.78 119.82,34.62 C119.82,35.3 120.32,35.6 121.3,35.6 Z M129.52,37 L129.52,24.06 L131.66,24.06 L131.66,31.5 L135.5,28.16 L138.34,28.16 L134.52,31.4 L138.56,37 L135.98,37 L133,32.58 L131.66,33.66 L131.66,37 L129.52,37 Z M144.72,37.2 C142.16,37.2 140.06,35.94 140.06,32.62 C140.06,29.08 142.42,27.96 144.6,27.96 C146.86,27.96 149.14,29.08 149.14,32.58 L149.14,33.06 L142.22,33.06 C142.28,34.6 143.04,35.54 144.76,35.54 C145.94,35.54 146.76,35.06 146.92,34.2 L149.12,34.2 C148.7,36.48 146.64,37.2 144.72,37.2 Z M142.26,31.56 L146.94,31.56 C146.76,30.2 145.76,29.62 144.6,29.62 C143.44,29.62 142.44,30.2 142.26,31.56 Z" id="handshake-smol"/>
        </g>
    </g>
</svg>