<?xml version="1.0" encoding="UTF-8"?>
<svg width="1000px" height="309px" viewBox="0 0 1000 309" version="1.1" xmlns="http://www.w3.org/2000/svg" xmlns:xlink="http://www.w3.org/1999/xlink">
    <!-- Generator: sketchtool 52.5 (67469) - http://www.bohemiancoding.com/sketch -->
    <title>ADDD2FAA-AAC1-4FE5-89F6-9DAE762437FB</title>
    <desc>Created with sketchtool.</desc>
    <defs>
        <path d="M328.610432,1.00125757 C328.610432,0.448278284 328.164748,0 327.603235,0 L86.0070341,0 C85.4507743,0 84.9999102,0.450582335 85,1.00125757 L85.0061844,38.9228516 L328.610432,38.9228516 L328.610432,1.00125757 Z" id="path-1"></path>
        <filter x="-0.6%" y="-3.9%" width="101.2%" height="107.7%" filterUnits="objectBoundingBox" id="filter-2">
            <feOffset dx="0" dy="3" in="SourceAlpha" result="shadowOffsetInner1"></feOffset>
            <feComposite in="shadowOffsetInner1" in2="SourceAlpha" operator="arithmetic" k2="-1" k3="1" result="shadowInnerInner1"></feComposite>
            <feColorMatrix values="0 0 0 0 0.490196078   0 0 0 0 0.274509804   0 0 0 0 0.596078431  0 0 0 1 0" type="matrix" in="shadowInnerInner1"></feColorMatrix>
        </filter>
    </defs>
    <g id="Landings" stroke="none" stroke-width="1" fill="none" fill-rule="evenodd">
        <g id="Download-Desktop" transform="translate(-220.000000, -673.000000)">
            <g id="Hero">
                <g id="Group-4" transform="translate(220.000000, 674.000000)">
                    <g id="Group-3">
                        <g id="Browser-Navigation-Bar">
                            <g id="WIndow-Frame" fill="#F9F9FA">
                                <path d="M0,4.99854806 C0,2.2379262 2.2412813,0 4.99563986,0 L995.00436,0 C997.763376,0 1000,2.23083496 1000,4.99854806 L1000,34 L0,34 L0,4.99854806 Z" id="Window-Frame"></path>
                            </g>
                            <g id="Toolbar+Tab">
                                <g>
                                    <use fill="#F9F9FA" fill-rule="evenodd" xlink:href="#path-1"></use>
                                    <use fill="black" fill-opacity="1" filter="url(#filter-2)" xlink:href="#path-1"></use>
                                </g>
                                <rect id="Rectangle-8" fill="#F9F9FA" x="0" y="34" width="1000" height="38"></rect>
                            </g>
                            <g id="Navigation-Icons" transform="translate(11.000000, 47.000000)">
                                <path d="M1.32755237,7.97898471 L6.76592135,13.2975292 C7.1626259,13.6854931 7.80680906,13.6861402 8.19396269,13.3094647 L8.22802757,13.2763218 C8.62000848,12.8949496 8.61380407,12.2705868 8.2219152,11.8893042 L4.22442067,8 L13.4916192,8 C14.0458358,8 14.4951172,7.55613518 14.4951172,7 L14.4951172,7 C14.4951172,6.44771525 14.0537982,6 13.4916192,6 L4.22442067,6 L8.2219152,2.11069582 C8.61727187,1.72603929 8.61518119,1.10035374 8.22802757,0.723678248 L8.19396269,0.690535315 C7.80198178,0.309163191 7.17044428,0.305789709 6.76592135,0.700018913 L1.32755237,6 L1.32755237,6.04528809 L1.05600758,6.30948364 C0.657148233,6.69754804 0.648235506,7.31805325 1.05600758,7.71478916 L1.32755237,7.97898471 Z" id="Back" fill="#6D6D6D"></path>
                                <path d="M29.1189627,7.98430647 L34.5573317,13.302851 C34.9540362,13.6908149 35.5982194,13.6914619 35.985373,13.3147864 L36.0194379,13.2816435 C36.4114188,12.9002714 36.4052144,12.2759085 36.0133255,11.8946259 L32.015831,8.00532176 L41.284303,8.00532176 C41.8385958,8.00532176 42.2879389,7.56145693 42.2879389,7.00532176 L42.2879389,7.00532176 C42.2879389,6.45303701 41.8465592,6.00532176 41.284303,6.00532176 L32.015831,6.00532176 L36.0133255,2.11601758 C36.4086822,1.73136105 36.4065915,1.10567549 36.0194379,0.729000004 L35.985373,0.695857072 C35.5933921,0.314484948 34.9618546,0.311111466 34.5573317,0.705340669 L29.1189627,6.00532176 L29.1189627,6.05060984 L28.8474179,6.31480539 C28.4485585,6.7028698 28.4396458,7.32337501 28.8474179,7.72011092 L29.1189627,7.98430647 Z" id="Forward-Inactive" fill="#D7D7D7" transform="translate(35.416430, 7.002661) rotate(-180.000000) translate(-35.416430, -7.002661) "></path>
                                <g id="refresh-16" opacity="0.600000024" transform="translate(55.000000, 0.000000)" fill="#000000" fill-rule="nonzero">
                                    <path d="M15,0 C14.4477153,0 14,0.44771525 14,1 L14,3.418 C12.2656045,0.514310998 8.70209555,-0.732515434 5.53572911,0.456459347 C2.36936266,1.64543413 0.507243887,4.92959094 1.11270734,8.25719541 C1.71817079,11.5847999 4.61776243,14.0025552 8,14 C9.85757574,14.0052268 11.6400293,13.267039 12.95,11.95 C13.3289722,11.5576211 13.3235524,10.9339152 12.9378186,10.5481814 C12.5520848,10.1624476 11.9283789,10.1570278 11.536,10.536 C9.99125715,12.1095317 7.60041508,12.4905288 5.64309951,11.4750741 C3.68578394,10.4596193 2.62049313,8.28558162 3.01739169,6.11654864 C3.41429024,3.94751567 5.18040527,2.29158019 7.37047725,2.03503148 C9.56054922,1.77848276 11.6615571,2.98141695 12.549,5 L10,5 C9.44771525,5 9,5.44771525 9,6 C9,6.55228475 9.44771525,7 10,7 L15,7 C15.5522847,7 16,6.55228475 16,6 L16,1 C16,0.44771525 15.5522847,0 15,0 Z" id="Shape"></path>
                                </g>
                            </g>
                            <g id="Address-Bar" transform="translate(175.000000, 40.000000)">
                                <g id="Group">
                                    <path d="M0.5,2.99649048 L0.5,25.0035095 C0.5,26.3763106 1.62500235,27.5 3.00616296,27.5 L646.993837,27.5 C648.379439,27.5 649.5,26.3825847 649.5,25.0035095 L649.5,2.99649048 C649.5,1.62368937 648.374998,0.5 646.993837,0.5 L3.00616296,0.5 C1.62056104,0.5 0.5,1.61741532 0.5,2.99649048 Z" id="Address-Bar-Background" stroke="#B7B7B7" fill="#FFFFFF"></path>
                                    <text id="Tor-Browser" font-family="SFUIText-Medium, SF UI Text" font-size="13" font-weight="400" fill="#7D4698">
                                        <tspan x="12" y="19">Tor Browser</tspan>
                                    </text>
                                    <text id="Search-with-DuckDuck-Copy" opacity="0.400000006" font-family="SFUIText-Regular, SF UI Text" font-size="13" font-weight="normal" fill="#000000">
                                        <tspan x="108" y="19">Search with DuckDuckGo or enter address</tspan>
                                    </text>
                                </g>
                            </g>
                            <g id="Tab-Content" transform="translate(97.000000, 11.000000)">
                                <text id="New-Tab" font-family="SFUIText-Regular, SF UI Text" font-size="12" font-weight="normal" letter-spacing="-0.000427656208" fill="#000000">
                                    <tspan x="0" y="11">New Tab</tspan>
                                </text>
                                <path d="M209,6.98984746 L212.780638,3.20920944 C213.059584,2.93026352 213.511845,2.93026352 213.790791,3.20920944 C214.069736,3.48815536 214.069736,3.94041606 213.790791,4.21936199 L210.010153,8 L213.790791,11.780638 C214.069736,12.0595839 214.069736,12.5118446 213.790791,12.7907906 C213.511845,13.0697365 213.059584,13.0697365 212.780638,12.7907906 L209,9.01015254 L205.219362,12.7907906 C204.940416,13.0697365 204.488155,13.0697365 204.209209,12.7907906 C203.930264,12.5118446 203.930264,12.0595839 204.209209,11.780638 L207.989847,8 L204.209209,4.21936199 C203.930264,3.94041606 203.930264,3.48815536 204.209209,3.20920944 C204.488155,2.93026352 204.940416,2.93026352 205.219362,3.20920944 L209,6.98984746 Z" id="Close-Icon" fill="#5A5A5A" fill-rule="nonzero"></path>
                            </g>
                            <g id="Streetlights" transform="translate(13.000000, 11.000000)">
                                <circle id="close" stroke="#E14640" fill="#FF6059" cx="6.66709594" cy="6" r="5.5"></circle>
                                <circle id="maximize" stroke="#1DAC2C" fill="#28CA42" cx="46.6206518" cy="6" r="5.5"></circle>
                                <circle id="minimize" stroke="#DFA023" fill="#FFBD2E" cx="26.6438739" cy="6" r="5.5"></circle>
                            </g>
                            <g id="new-16" opacity="0.5" transform="translate(343.000000, 13.000000)" fill="#5A5A5A" fill-rule="nonzero">
                                <path d="M11.1428571,5.14285714 L6.85714286,5.14285714 L6.85714286,0.857142857 C6.85714286,0.383755929 6.47338693,0 6,0 C5.52661307,0 5.14285714,0.383755929 5.14285714,0.857142857 L5.14285714,5.14285714 L0.857142857,5.14285714 C0.383755929,5.14285714 0,5.52661307 0,6 C-9.51619735e-17,6.47338693 0.383755929,6.85714286 0.857142857,6.85714286 L5.14285714,6.85714286 L5.14285714,11.1428571 C5.14285714,11.6162441 5.52661307,12 6,12 C6.47338693,12 6.85714286,11.6162441 6.85714286,11.1428571 L6.85714286,6.85714286 L11.1428571,6.85714286 C11.6162441,6.85714286 12,6.47338693 12,6 C12,5.52661307 11.6162441,5.14285714 11.1428571,5.14285714 Z" id="Shape"></path>
                            </g>
                            <g id="menu-16" transform="translate(966.000000, 40.000000)">
                                <rect id=":hover" x="0" y="0" width="28" height="28" rx="3"></rect>
                                <path d="M9,10 L19,10 C19.5522847,10 20,9.55228475 20,9 C20,8.44771525 19.5522847,8 19,8 L9,8 C8.44771525,8 8,8.44771525 8,9 C8,9.55228475 8.44771525,10 9,10 Z M19,13 L9,13 C8.44771525,13 8,13.4477153 8,14 C8,14.5522847 8.44771525,15 9,15 L19,15 C19.5522847,15 20,14.5522847 20,14 C20,13.4477153 19.5522847,13 19,13 Z M19,18 L9,18 C8.44771525,18 8,18.4477153 8,19 C8,19.5522847 8.44771525,20 9,20 L19,20 C19.5522847,20 20,19.5522847 20,19 C20,18.4477153 19.5522847,18 19,18 Z" id="Shape" fill="#6D6D6D" fill-rule="nonzero"></path>
                            </g>
                            <g id="onion-16" opacity="0.850000024" transform="translate(97.000000, 46.000000)" fill="#0C0C0D" fill-opacity="0.8">
                                <path d="M7.06561268,5.02241519 C6.77772045,5.2116121 5.67952408,5.90554501 5.6853992,5.90178938 C5.35790364,6.11113858 5.09635335,6.28354515 4.86413018,6.44457064 C4.45268439,6.72987059 4.15887546,6.96359333 3.97499388,7.15193679 C2.95731966,8.16499644 2.66333288,8.97771922 2.77290903,10.3548433 C2.86347409,11.8242645 4.01769529,13.1628244 5.73360996,13.7141752 C6.42393225,13.9308094 7.08993386,14 8.24418607,14 C9.69409954,14 11.010192,13.6175745 11.8475477,12.9475461 C12.7611494,12.2214478 13.2954545,11.1244618 13.2954545,10.0058997 C13.2954545,8.86286776 12.7876949,7.76058164 11.8769727,6.9600938 C11.3838667,6.53505399 10.722397,6.11798563 9.75901067,5.60447735 C9.08955454,5.26286683 8.4719792,4.75203246 8.02479915,4.11379651 C7.77978416,4.4739196 7.45874047,4.78154253 7.06561268,5.02241519 Z M13.1898674,5.45132743 C14.5364638,6.63126844 15.2954545,8.28318584 15.2954545,10.0058997 C15.2954545,11.7286136 14.4874967,13.4041298 13.0919331,14.5132743 C11.7943039,15.5516224 9.98251962,16 8.24418607,16 C7.16690894,16 6.1875661,15.9528024 5.13477254,15.6224189 C2.71089901,14.8436578 0.923598318,12.8613569 0.776696891,10.4778761 C0.629795465,8.63716814 1.07049974,7.22123894 2.56399758,5.73451327 C3.32298828,4.95575221 4.88993683,4.05899705 5.96721396,3.35103245 C6.50585253,3.02064897 7.06897466,2.02949853 5.99169753,0.16519174 L6.21204967,0 L9.41939748,1.27433628 C8.97869321,2.64306785 10.2518389,3.61061947 10.6680596,3.82300885 C11.5984353,4.31858407 12.4798439,4.83775811 13.1898674,5.45132743 Z" id="Border" fill-rule="nonzero"></path>
                                <path d="M8.27272727,5 C8.49625435,5.67889606 9.03172133,6.21869701 9.63636041,6.5268042 C10.3279607,6.89485621 10.8036714,7.19446079 11.1684763,7.5087455 C11.8759239,8.12902347 12.2727273,8.98864463 12.2727273,9.88278877 C12.2727273,10.7655864 11.852758,11.6266312 11.1353943,12.1959748 C10.4876507,12.713565 9.5005326,13 8.42423809,13 C8.37244863,13 8.32197458,12.9998006 8.27272727,12.9993871 L8.27272727,5 Z" id="Half-Content"></path>
                            </g>
                        </g>
                        <path d="M0.5,34.5 L999.5,34.5" id="Line-2" stroke="#B7B7B7" stroke-linecap="square" fill-rule="nonzero"></path>
                        <path d="M85,2.27373675e-13 L85,34" id="Line-2" stroke="#B7B7B7" stroke-linecap="square" fill-rule="nonzero"></path>
                        <path d="M329.25,2.27373675e-13 L329.25,34" id="Line-2-Copy" stroke="#B7B7B7" stroke-linecap="square" fill-rule="nonzero"></path>
                    </g>
                    <rect id="Rectangle" fill="#401753" fill-rule="nonzero" x="0" y="72" width="1000" height="236"></rect>
                </g>
            </g>
        </g>
    </g>
</svg>