<?xml version="1.0" encoding="UTF-8" standalone="no"?>
<!-- Created with Inkscape (http://www.inkscape.org/) -->
<svg xmlns:dc="http://purl.org/dc/elements/1.1/" xmlns:cc="http://creativecommons.org/ns#" xmlns:rdf="http://www.w3.org/1999/02/22-rdf-syntax-ns#" xmlns:svg="http://www.w3.org/2000/svg" xmlns="http://www.w3.org/2000/svg" xmlns:xlink="http://www.w3.org/1999/xlink" xmlns:sodipodi="http://sodipodi.sourceforge.net/DTD/sodipodi-0.dtd" xmlns:inkscape="http://www.inkscape.org/namespaces/inkscape" inkscape:export-ydpi="19.769848" inkscape:export-xdpi="19.769848" inkscape:export-filename="/home/mike/mike-wiki.png" width="614.57227" height="622.73328" id="svg2" sodipodi:version="0.32" inkscape:version="0.48.3.1 r9886" sodipodi:docname="mike-self-portrait-final.svg" version="1.1">
  <defs id="defs3">
    <linearGradient id="linearGradient2103">
      <stop id="stop2105" offset="0" style="stop-color:#ffffff;stop-opacity:1;"/>
      <stop id="stop2107" offset="1.0000000" style="stop-color:#b8beb3;stop-opacity:1.0000000;"/>
    </linearGradient>
    <linearGradient id="linearGradient2095">
      <stop id="stop2097" offset="0" style="stop-color:#ffffff;stop-opacity:1;"/>
      <stop id="stop2099" offset="1" style="stop-color:#ffffff;stop-opacity:0;"/>
    </linearGradient>
    <linearGradient inkscape:collect="always" id="linearGradient16606">
      <stop style="stop-color:#000000;stop-opacity:1;" offset="0" id="stop16608"/>
      <stop style="stop-color:#000000;stop-opacity:0;" offset="1" id="stop16610"/>
    </linearGradient>
    <linearGradient inkscape:collect="always" xlink:href="#linearGradient16606" id="linearGradient16612" gradientTransform="scale(1.996266,0.500935)" x1="195.59021" y1="1103.0135" x2="213.26933" y2="1106.2427" gradientUnits="userSpaceOnUse"/>
    <linearGradient y2="1106.2427" x2="213.26933" y1="1103.0135" x1="195.59021" gradientTransform="matrix(1.996266,0,0,0.500935,-160,80)" gradientUnits="userSpaceOnUse" id="linearGradient2081" xlink:href="#linearGradient16606" inkscape:collect="always"/>
    <linearGradient gradientUnits="userSpaceOnUse" y2="734.25824" x2="99.030327" y1="772.57452" x1="156.67218" gradientTransform="matrix(2.386897,0,0,0.418954,-160,80)" id="linearGradient2101" xlink:href="#linearGradient2103" inkscape:collect="always"/>
    <linearGradient gradientUnits="userSpaceOnUse" y2="363.39487" x2="149.47334" y1="374.36395" x1="210.85165" gradientTransform="scale(1.189323,0.840814)" id="linearGradient2884" xlink:href="#linearGradient2103" inkscape:collect="always"/>
  </defs>
  <sodipodi:namedview id="base" pagecolor="#ffffff" bordercolor="#666666" borderopacity="1.0" inkscape:pageopacity="0.0" inkscape:pageshadow="2" inkscape:zoom="0.35" inkscape:cx="-418.75106" inkscape:cy="-23.940959" inkscape:document-units="px" inkscape:current-layer="layer1" inkscape:window-width="1364" inkscape:window-height="766" inkscape:window-x="0" inkscape:window-y="0" showgrid="false" fit-margin-top="0" fit-margin-left="0" fit-margin-right="0" fit-margin-bottom="0" inkscape:window-maximized="0"/>
  <metadata id="metadata4">
    <rdf:RDF>
      <cc:Work rdf:about="">
        <dc:format>image/svg+xml</dc:format>
        <dc:type rdf:resource="http://purl.org/dc/dcmitype/StillImage"/>
        <dc:title/>
      </cc:Work>
    </rdf:RDF>
  </metadata>
  <g inkscape:label="Layer 1" inkscape:groupmode="layer" id="layer1" transform="translate(-34.55995,-194.87323)">
    <path style="opacity:0.47872338;fill:#f5c1b6;fill-opacity:1;fill-rule:evenodd;stroke:none" d="m 182.85714,476.6479 c 0.47619,9.52381 0.95238,19.04761 1.42857,28.57142 3.33333,2.38095 6.66667,4.76191 10,7.14286 4.28572,8.57143 8.57143,17.14286 12.85715,25.71429 25.23809,36.42857 -8.09524,52.14286 -8.21428,83.03571 -0.0649,16.83123 21.54761,14.10714 22.49999,15.53572 0.71429,15.47619 12.85714,33.80952 6.42857,50.71428 9.52381,11.90476 10.47619,23.80953 15.71429,35.71429 2.38095,8.57143 -8.09524,15.71428 -5.71429,25.71428 1.90476,13.33333 13.80953,26.66667 27.14286,35.71429 29.28571,7.85714 61.42857,10 85,22.14286 28.33333,8.80952 40.95238,11.90475 87.85714,10.71428 32.85715,-8.80953 48.57143,-16.19047 77.14286,-35 -16.90476,-22.85714 -25.23809,-61.42857 -16.42857,-94.28571 8.33333,-26.90476 19.52381,-53.80953 25,-80.71429 18.09524,-20 24.76191,-32.85715 35.71429,-60 5.71429,-12.38095 4.53081,-15.74232 -2.85715,-45.71428 -14.63235,-8.91805 -14.28571,-5.71429 -25.71428,-8.57143 -14.76191,7.61905 -16.66667,13.80952 -22.85715,27.14285 -3.33333,10.47619 -6.07493,15.72831 -23.69398,19.06165 -13.80952,-10.95238 -2.39497,-13.82355 -16.20449,-24.77593 -1.42857,-22.85715 -35.81581,-35 -44.38724,-56.42857 -43.09524,9.52381 -47.61905,11.19048 -90.71429,20.71429 -45.71428,10 -57.85714,5 -96.42857,2.14285 -28.57143,-1.42857 -53.57143,-4.28571 -53.57143,-4.28571 z" id="path2174" inkscape:connector-curvature="0"/>
    <path style="opacity:0.25531915;fill:#ffffff;fill-opacity:1;fill-rule:evenodd;stroke:#000000;stroke-width:1px;stroke-linecap:butt;stroke-linejoin:miter;stroke-opacity:1" d="m 248.57142,533.07647 c -10.08918,3.42032 6.08029,35.05831 15.71429,42.85714 6.16872,4.99364 5.90617,5.99299 36.42857,5 11.16136,-0.36312 36.25691,-7.99132 38.57143,-12.85715 1.61176,-3.38842 -2.03607,-29.98068 -10.71428,-40.71428 -35.37473,0.61052 -60.38642,-0.93489 -80.00001,5.71429 z" id="path5979" inkscape:connector-curvature="0"/>
    <path style="fill:#79533b;fill-opacity:1;fill-rule:evenodd;stroke:none" d="m 242.85714,645.21933 31.42857,20 54.28572,17.14285 8.57143,25.71429 -37.14286,-20 -37.14286,-5.71429 -25.71428,0 5.71428,-37.14285 z" id="path1407" inkscape:connector-curvature="0"/>
    <path style="fill:#79533b;fill-opacity:1;fill-rule:evenodd;stroke:none" d="m 231.42857,643.79075 -17.14286,8.57143 -2.85714,14.28572 2.85714,14.28571 5.71429,5.71429 14.28571,-11.42857 -2.85714,-31.42858 z" id="path1409" inkscape:connector-curvature="0"/>
    <path style="fill:#f3aeb5;fill-opacity:1;fill-rule:evenodd;stroke:none" d="m 237.14286,684.03585 c 0.95238,5.71429 0.8946,15.46918 8.91805,17.14286 13.16994,1.23133 14.21803,1.45251 34.45904,-2.36693 14.85351,-3.07832 13.5446,-4.13634 17.28643,-10.24511 -23.92507,0.17331 -42.79937,1.35678 -60.66352,-4.53082 z" id="path1411" inkscape:connector-curvature="0"/>
    <path style="fill:#ffffff;fill-opacity:1;fill-rule:evenodd;stroke:none" d="m 289.64286,530.57647 c -1.0149,3.42528 8.68659,13.81612 15.00001,16.42857 7.49611,3.10184 19.9,-0.6074 24.2857,-4.28572 2.99525,-2.51215 0.21434,-8.14757 -3.57143,-11.42857 -3.35709,-2.90947 -10.24291,-2.25013 -15.71428,-2.14285 -6.67148,0.13081 -3.39585,-1.57472 -20,1.42857 z" id="path9775" inkscape:connector-curvature="0"/>
    <path transform="translate(-160,80)" style="fill:#000000;fill-opacity:1;stroke:none" id="path3703" d="m 471.4887,453.34174 c 0,3.0684 -2.48743,5.55583 -5.55584,5.55583 -3.0684,0 -5.55584,-2.48743 -5.55584,-5.55583 0,-3.06841 2.48744,-5.55584 5.55584,-5.55584 3.06841,0 5.55584,2.48743 5.55584,5.55584 z"/>
    <path style="fill:#00b700;fill-opacity:1;fill-rule:evenodd;stroke:none" d="m 297.14286,535.51519 c 1.797,6.21926 7.24551,10.75444 11.01015,10.92349 2.98188,0.13391 8.98985,-3.86889 8.98985,-6.63778 0,-4.43174 -8.58685,-11.14594 -10,-11.42857 -0.9678,-0.19356 4.48195,6.83854 3.86729,8.98985 -0.33772,1.18202 -5.36524,2.02955 -6.72444,1.01015 -2.45033,-1.83774 -3.69438,-9.48073 -5.2092,-10.08666 -0.86613,-0.34645 -3.00651,3.51642 -1.93365,7.22952 z" id="path3701" inkscape:connector-curvature="0"/>
    <path style="opacity:0.25531915;fill:#ffffff;fill-opacity:1;fill-rule:evenodd;stroke:#000000;stroke-width:1px;stroke-linecap:butt;stroke-linejoin:miter;stroke-opacity:1" d="m 165.34088,530.04689 c -10.60979,0.96041 8.25584,36.48799 19.28572,42.14285 9.74015,4.99364 6.62046,5.99299 22.85714,5 11.14644,-0.68168 9.11405,-7.99132 11.42857,-12.85715 1.61176,-3.38842 0.82108,-19.26639 -6.42856,-30.71428 -5.37473,-2.24662 -36.81499,-4.50631 -47.14287,-3.57142 z" id="path6739" inkscape:connector-curvature="0"/>
    <path style="fill:#79533b;fill-opacity:1;fill-rule:evenodd;stroke:none" d="m 424.87832,458.59043 c 22.8968,37.71236 47.81389,39.05924 50.50763,76.7716 8.08123,9.42809 12.12183,8.75466 18.18275,2.0203 14.81557,-23.57023 15.489,-32.99831 32.32488,-44.44671 21.54992,0.67344 26.9374,1.34687 38.38579,14.14214 0,14.14213 4.04061,24.24366 -4.04061,40.40609 -8.75465,28.28428 -23.57022,44.44673 -38.38579,64.64978 -8.41794,19.86632 -22.8968,76.09816 -25.25382,114.14723 5.38748,35.01863 6.73435,33.67175 22.22336,54.54824 36.70221,-30.6413 37.03892,-28.95771 51.51778,-29.29443 26.26397,5.38748 32.32488,6.73435 54.54824,18.18275 16.83588,-18.18274 23.57022,-26.26397 24.24366,-64.64976 -22.22336,-5.72419 -40.4061,-17.50931 -42.42641,-47.47717 6.06092,-71.38411 0,-80.13878 -14.14213,-119.19801 3.36718,-16.16244 -7.40778,-24.24365 -24.24366,-46.46701 -29.63114,-30.97801 -35.01863,-35.69205 -76.7716,-56.56854 -22.22336,7.7445 -44.44671,15.489 -66.67007,23.2335 z" id="path11293" inkscape:connector-curvature="0"/>
    <path style="opacity:0.26595746;fill:#ffffff;fill-opacity:1;fill-rule:evenodd;stroke:#000000;stroke-width:1px;stroke-linecap:butt;stroke-linejoin:miter;stroke-opacity:1" d="m 498.61946,554.55493 c -2.69374,10.10152 0.67344,12.12183 -8.08122,26.26396 16.16245,-0.67343 22.22336,-1.34687 30.30458,-8.08122 8.75466,-9.42809 7.40779,-14.81557 8.08122,-28.28427 -4.71405,-4.04061 -9.42809,-8.08122 -14.14214,-12.12183 -5.38748,6.06092 -6.73435,14.14214 -16.16244,22.22336 z" id="path12811" inkscape:connector-curvature="0"/>
    <path sodipodi:nodetypes="ccccccccc" id="path16604" d="m 247.875,624.71875 c -9.72063,1.85147 -10.51876,2.80607 -18.1875,8.6875 l 3.65546,1.7914 c 9.68535,-3.85829 5.05601,-3.60617 14.65704,-5.43829 10.53656,2.81577 3.08964,-1.39736 10.82503,2.47033 l 8.54997,1.11406 c -7.68787,-0.81347 -8.46946,-5.72424 -19.28125,-8.59375 l -0.0937,-0.0312 -0.125,0 z" style="opacity:0.11170211;fill:url(#linearGradient2081);fill-opacity:1;fill-rule:evenodd;stroke:none" inkscape:connector-curvature="0"/>
    <path sodipodi:nodetypes="czcczc" id="path2083" d="m 215.06246,517.53642 c 2.0203,3.72432 3.95891,7.0915 4.63234,10.45868 0.67344,3.36717 0.0817,8.16291 -0.59173,11.53009 2.69374,1.34687 6.10177,0.55088 8.79551,1.89775 0.65301,-4.2752 4.97849,-10.41317 2.31617,-16.75417 -2.71278,-6.4612 -9.38724,-8.32633 -15.15229,-7.13235 z" style="fill:#ffffff;fill-opacity:1;fill-rule:evenodd;stroke:none" inkscape:connector-curvature="0"/>
    <path sodipodi:nodetypes="csssss" id="path2087" d="m 207.67857,522.89789 c 0.55297,-1.96052 4.96005,-4.84355 6.78571,-4.28571 2.46006,0.75168 4.45844,4.50986 5.7143,7.5 1.24414,2.96224 0.49667,8.72362 -1.07144,9.64285 -1.88427,1.10458 -5.70862,-1.06576 -8.21429,-3.57142 -2.13719,-2.13719 -3.97084,-6.60338 -3.21428,-9.28572 z" style="fill:#00b700;fill-opacity:1;fill-rule:evenodd;stroke:none" inkscape:connector-curvature="0"/>
    <path sodipodi:nodetypes="cssss" id="path2085" d="m 213.21429,519.50504 c -1.07802,0.13788 -1.03903,5.22705 -0.35714,7.5 0.74668,2.48895 4.14757,7.73623 4.64285,6.78571 1.12605,-2.16106 1.47044,-6.05091 0.71429,-8.57143 -0.67242,-2.24138 -2.10246,-6.08489 -5,-5.71428 z" style="fill:#000000;fill-opacity:1;fill-rule:evenodd;stroke:none" inkscape:connector-curvature="0"/>
    <path sodipodi:nodetypes="csccccccccscc" id="path2109" d="m 171.42857,383.79075 c 32.85714,-7.14285 17.31106,-5.21737 60,-5.71428 62.33338,-0.70207 139.52381,17.61905 201.42857,32.85714 16.19048,5.71429 30.95238,8.57143 51.42857,15.71429 32.85715,21.90476 60,38.09524 85.71429,62.85714 5.2381,-11.42857 7.61905,-17.14286 2.85714,-30 8.57143,-26.66666 11.42857,-57.61905 8.57143,-90 7.14286,-15.71428 7.14286,-37.14285 5.71429,-58.57143 -6.19048,-30.95238 -36.66667,-50.47619 -61.42858,-77.14285 C 490,213.79076 470,206.6479 424.28571,198.07647 c -70.47619,-2.38095 -98.94907,-9.29896 -142.85714,15.71429 -26.12114,14.88052 -46.19048,30.47618 -58.57143,48.57142 l -51.42857,121.42857 z" style="opacity:0.70212761;fill:url(#linearGradient2884);fill-opacity:1;fill-rule:evenodd;stroke:#000000;stroke-width:1px;stroke-linecap:butt;stroke-linejoin:miter;stroke-opacity:0.33149169" inkscape:connector-curvature="0"/>
    <path sodipodi:nodetypes="ccsscssscccc" id="path2089" d="m 477.40626,421.21479 c -67.38436,10.81582 -130.483,28.06019 -200.7245,29.59029 -14.18298,-1.42857 -25.85666,1.2039 -35.4061,-0.71428 -30.28807,-6.08392 -86.19464,-20.9851 -138.31911,-20.79479 -22.91364,0.0837 -38.52937,-2.69374 -49.22263,-4.7549 -8.87721,0.55089 -17.28826,4.81603 -18.77448,8.79551 -1.04412,2.79572 -0.07768,8.41551 3.32632,8.67296 8.31743,0.62905 58.16781,7.81656 89.60772,5.46918 10.53626,-0.78666 24.32295,7.75441 105.05586,20.20305 28.99856,2.85714 37.28283,2.14286 84.85281,0 84.00727,-11.11168 100.87168,-15.79479 172.73609,-33.33504 8.47981,-5.8059 0.53106,-13.04036 -13.13198,-13.13198 z" style="fill:#df4261;fill-opacity:1;fill-rule:evenodd;stroke:none" inkscape:connector-curvature="0"/>
    <path sodipodi:nodetypes="ccccccsc" id="path2091" d="m 186.48232,459.60059 c -3.36718,6.06091 -5.7242,8.08122 -4.04061,15.15228 33.67175,7.07108 70.37397,8.08123 108.08633,8.08123 21.54992,-0.67343 45.12015,-6.39764 64.64976,-9.09138 58.25213,-11.44839 82.15907,-18.85617 134.35029,-38.38579 -112.12694,25.25382 -112.12693,24.24366 -176.7767,33.33503 -28.62099,0.67344 -46.25133,0.34393 -66.67008,-1.01015 -24.03358,-1.59381 -30.64129,-1.34687 -59.59899,-8.08122 z" style="opacity:0.78723408;fill:#4b1b19;fill-opacity:1;fill-rule:evenodd;stroke:none" inkscape:connector-curvature="0"/>
    <path sodipodi:nodetypes="cccsccsc" id="path2093" d="M 170,385.21933 57.14286,423.79076 c 7.61905,3.33333 52.38095,5.23809 82.85714,7.14285 37.14286,3.33334 71.58438,13.04535 105.71429,17.14286 32.7925,3.93695 45.71428,2.38095 87.14285,-1.42857 60.95238,-8.57143 93.33333,-17.14286 140,-25.71429 C 391.42857,405.21933 333.40206,383.30023 241.42857,378.07647 217.75229,376.73174 200.95238,376.6479 170,385.21933 z" style="fill:url(#linearGradient2101);fill-opacity:1;fill-rule:evenodd;stroke:none" inkscape:connector-curvature="0"/>
    <path sodipodi:nodetypes="cccsccscc" id="path2111" d="m 460.71429,273.79075 -10,20 c 12.85714,6.19048 22.85714,10.95239 24.28571,18.57144 27.61905,20.47619 30.32251,18.30894 71.42857,44.28571 8.69999,5.49791 12.38095,14.28571 22.85714,30 L 575,368.07647 c -6.66667,-11.90476 -9.45188,-25.60063 -20,-31.42857 -43.85171,-24.22849 -40.47619,-20.95238 -62.85714,-33.57143 -3.33333,-9.76191 -13.80952,-22.38095 -31.42857,-29.28572 z" style="fill:#df4261;fill-opacity:1;fill-rule:evenodd;stroke:none" inkscape:connector-curvature="0"/>
    <path sodipodi:nodetypes="ccssccssc" id="path2115" d="m 445.71429,309.50504 c -2.38095,7.14286 -4.76191,14.28571 -7.14286,21.42857 13.80952,10 21.58525,18.67114 35.71428,25.71429 27.94943,13.93245 27.31379,13.13078 68.57143,37.14285 9.84835,5.73177 14.28572,12.38096 25.71429,22.85715 -0.95238,-7.14286 -1.90476,-14.28571 -2.85714,-21.42857 -9.04762,-8.09524 -13.96593,-12.54297 -22.85715,-21.42858 -23.46933,-23.45453 -45.92867,-21.15988 -75,-45.71428 -7.35774,-6.21454 -14.7619,-12.38095 -22.14285,-18.57143 z" style="fill:#df4261;fill-opacity:1;fill-rule:evenodd;stroke:none" inkscape:connector-curvature="0"/>
    <path sodipodi:nodetypes="ccscccc" id="path2117" d="m 435.71429,349.50504 -2.85715,18.57143 c 19.52381,13.33333 27.75065,10.89331 54.28572,27.14286 30.69481,18.79689 59.52381,32.85714 82.85714,53.57142 l -2.85714,-22.85714 c -29.28571,-22.14286 -48.57143,-31.42857 -105,-57.85714 -8.80952,-6.19048 -17.61905,-12.38095 -26.42857,-18.57143 z" style="fill:#df4261;fill-opacity:1;fill-rule:evenodd;stroke:none" inkscape:connector-curvature="0"/>
  </g>
  <g inkscape:groupmode="layer" id="layer2" inkscape:label="face" transform="translate(-34.55995,-194.87323)"/>
  <path style="fill:#79533b;fill-opacity:1;fill-rule:evenodd;stroke:none" d="m 435.8882,326.42803 c 0,20.95238 -17.59101,40.82282 -16.16244,68.91806 -3.80952,35.71429 -9.04762,48.57143 -28.57143,85.71429 -18.33333,31.19047 -50.95238,33.80953 -76.42857,50.71429 -9.52381,1.90476 -19.04762,3.80952 -28.57143,5.71428 -2.85714,6.19048 -5.71428,12.38096 -8.57142,18.57143 -10.47619,-0.47619 -20.95238,-0.95238 -31.42857,-1.42857 -4.76191,-3.80953 -9.52381,-7.61905 -14.28572,-11.42858 -3.33333,-9.04761 -0.95238,-10.95238 2.85715,-22.85714 -11.42858,-1.90476 -8.57143,-3.80952 -25.71429,-5.71428 -5.2381,-7.14285 -6.19048,-10 -15.71429,-21.42857 -3.33333,12.85714 0.47619,18.57143 2.85715,30 8.09524,8.57143 -2.38095,20 -1.42857,34.28571 3.80952,14.28572 10.47618,27.14286 24.28571,42.85715 17.61904,8.80952 20.95238,9.04761 44.28571,13.57142 21.42858,-2.85714 22.85714,-5.71428 47.14286,-8.57142 29.7619,-8.33333 30.95238,-5.2381 57.85714,-27.85715 14.28572,0.95238 32.85714,0.4762 48.57143,-12.85714 4.52381,-18.33333 3.33334,-25.23809 20.71429,-39.28571 1.90476,-11.42858 8.09523,-31.42857 20,-52.85715 -7.61904,-15.71429 -9.52381,-34.28571 -10,-51.42857 0.95238,-25.95238 -2.03432,-41.31302 0.34663,-75.83683 -7.38095,-3.57143 -4.66039,-15.22409 -12.04134,-18.79552 z" id="path3697" sodipodi:nodetypes="ccccccccccccccccccccccc" inkscape:connector-curvature="0"/>
  <path style="fill:#393c4f;fill-opacity:1;fill-rule:evenodd;stroke:none" d="m 129.72576,329.63181 c 16.65705,-0.20565 32.25852,0.87138 48.57143,4.28571 4.16328,0.87138 6.15626,7.37026 10,8.57143 3.77531,1.17978 9.11365,0.17578 12.85715,-1.42857 2.92317,-1.25279 3.87048,-6.77057 7.14285,-7.14286 39.36708,-4.47869 48.20271,-5.19738 86.42857,-7.85714 5.80786,-0.40411 10.32746,9.0746 15.71429,8.57143 37.94651,-3.54445 79.04762,-16.66667 118.57143,-25 2.85714,3.33333 5.71429,6.66667 8.57143,10 -39.52381,8.33333 -79.04762,16.66667 -118.57143,25 -9.04762,1.42857 -6.66667,0 -10,4.28571 0.47619,3.33333 0.95238,6.66667 1.42857,10 -1.90476,0.95238 -3.80953,1.90477 -5.71429,2.85715 -3.80952,-14.28571 -4.76191,-18.57143 -11.42857,-30 -33.80953,0.47619 -47.02443,1.19531 -80,5.71428 -3.26385,0.44728 -3.47313,6.76607 -2.85714,10 1.28877,6.76607 5.71429,13.33333 8.57143,20 -4.76191,-5.23809 -9.52381,-10.47619 -14.28572,-15.71428 -5.23809,0.47619 -10.47619,0.95238 -15.71428,1.42857 -0.95238,3.80952 -1.90476,7.61905 -2.85714,11.42857 -2.85714,-8.57143 -1.80939,-22.07319 -8.57143,-25.71429 -11.80939,-6.3589 -31.42857,-2.85714 -47.14286,-4.28571 -1.42857,1.42857 -2.85714,2.85714 -4.28571,4.28571 2.85714,6.66667 5.71428,13.33333 8.57142,20 -4.7619,-8.09524 -6.53965,-16.71274 -8.57142,-24.28571 -0.58727,-2.18894 0.94275,-4.96755 3.57142,-5 z" id="path3699" sodipodi:nodetypes="csssssscccccccssccccscccss" inkscape:connector-curvature="0"/>
</svg>