<svg fill="none" height="32" viewBox="0 0 55 32" width="55" xmlns="http://www.w3.org/2000/svg"><g fill="#fff"><path d="m1.42627 3.20008h20.10773c.7507 0 1.4156.63423 1.4156 1.41768v5.96914c0 .7835-.6649 1.4177-1.4156 1.4177h-3.9684c-.9383 0-1.3512.5223-1.3512 1.1193v17.7196c0 .6716-.5254 1.1566-1.1635 1.1566h-6.90615c-.63807 0-1.126-.485-1.126-1.1566v-17.9062c0-.5969-.563-.97-.97587-.97h-4.61661c-.788202 0-1.42627-.6342-1.42627-1.4177v-5.96914c0-.74615.638068-1.38038 1.42627-1.38038z"/><path d="m51.9403 9.20008h1.8362c.6885 0 1.2241.52501 1.2241 1.16252v6.4126c0 .825.0382 1.1625-.9946 1.1625-2.0274 0-2.9455 1.0501-2.9455 2.2126v10.8377c0 .4875-.4973 1.0121-1.0711 1.0121h-6.5795c-.5737 0-1.071-.4871-1.071-1.0121v-12.3378c0-.225 0-.525.0382-.7125.3443-4.575 4.0166-8.21261 8.6452-8.70012.1147 0 .6503-.0375.918-.0375z"/><path d="m28.261 10.3697c.1943-.2875.5641-.40505.8922-.2837l.183.0717c1.1161 1.4959 3.5467 2.0938 4.0451 2.3599 1.6085.7263 2.7706 1.6236 3.8563 2.6053 2.0591 1.8878 3.2199 4.5309 3.2199 7.287s-1.2358 5.4369-3.3697 7.2115c-1.9843 1.6612-4.7548 2.3786-7.4129 2.3787-1.6473 0-3.1452-.0755-4.755-.604-3.7065-1.246-6.4396-4.4176-6.6642-8.231-.2246-2.945.4492-5.2107 2.733-7.5893 1.1607-1.2459 3.5568-2.6807 5.2041-3.8133.0887-.061.316-.2107.5044-.3965-.0942.3717-.0826.3507-.1344.5511-.3157 1.2221-.9994 2.1926-1.5586 2.7566-.0875.0883-.1817.1699-.2814.2437-.2495.1844-.4872.3805-.7124.5865-.7309.5224-1.3064.9844-1.6647 1.369l-.0197.0207c-.9948 1.0362-1.5656 1.9691-1.8837 2.8891-.2989.8646-.4104 1.8218-.3423 2.9984l.0171.2547.0011.0167c.1704 2.8915 2.2442 5.453 5.2928 6.5164-1.4014-1.418-2.5169-3.1461-3.0332-5.1576-.1448-.5954-.2247-1.2164-.2128-1.8424-.023-2.0245.9049-4.2185 2.506-5.4475.2172-.1856.4393-.3625.6555-.5366.0494-.0398.1119-.0633.1766-.0621.0646.0011.1259.0263.1708.0706s.0704.1047.0716.1685c.0012.0637-.0226.1253-.063.1741-.1801.2165-.3625.4286-.5351.6402-1.2628 1.4396-1.7391 3.1701-1.6747 4.9928.0117.5104.0873 1.0252.2109 1.5338.5318 2.0953 1.7384 4.0833 3.2181 5.836.0101.0017.0201.0031.0302.0047-.6825-1.4964-1.0752-3.0947-1.2525-4.7226-.0434-.4341-.0711-.8691-.0598-1.3276.0313-1.3417.1838-2.8435.8727-4.1134.0979-.1841.2048-.3628.3199-.5348.035-.0515.0861-.0927.1469-.112s.1258-.0154.1819.0112c.0561.0267.0997.0746.1222.1335.0226.0589.0219.1239.0028.183-.0585.1832-.1098.3672-.1539.5515-.3099 1.2681-.2351 2.5306-.1881 3.881.0137.3827.0507.7905.0915 1.1951.1794 1.6445.3918 3.3085.7436 4.9474 1.1295-1.9733 1.5643-4.3601 1.8432-6.621.0109-.1076.021-.22.0291-.3253.1687-2.1288-.4615-4.3119-1.3406-6.4151-.103-.2461-.2092-.491-.3192-.7365-.0258-.0575-.0321-.1231-.014-.1843.0181-.0611.0589-.1127.1139-.1438.0551-.031.1208-.0394.1834-.0237.0626.0156.1167.0542.1539.1053.1613.2228.3175.4482.4688.6784 1.2854 1.9537 2.2624 4.3066 2.0917 6.8139-.008.1185-.0188.2432-.0307.3616-.2851 2.2832-.883 4.5704-2.2983 6.4656 3.492-1.1395 4.7294-5.5622 4.7294-7.1964 0-1.3596-.3047-3.7833-2.1852-6.4384-1.0282-1.4517-2.2464-2.8237-2.7039-4.536-.1203-.45-.2183-.9241-.2754-1.4033z"/></g><path d="m29.9122 6.99739c-.377.55768-1.3303 1.85893-.5763 3.16021l-.183-.0717c-.3281-.12133-.6978-.0037-.8921.2838l-.0559.0667-.071-.0806c-.3316-.3271-.8567-.36387-1.2319-.0863l-.1.074c-.5656-3.06727-.6598-4.08968-.0001-5.85566.9738-2.60661 4.2445-3.990783 6.0512-4.48043208.1894-.05130972.2967.17634608.1458.30032808-1.6564 1.361674-2.9466 2.861374-3.7998 4.870604-.0376.08838.0568.15244.1235.08282.5478-.5712 1.4417-1.60345 3.9482-2.10808.0923-.01858.1489.09336.0797.15638-2.1561 1.96441-2.6812 2.5679-3.4383 3.68793z" fill="#b3e54e"/><path d="m33.2713 3.15297c.0922-.01858.1488.09346.0797.15648-2.1561 1.96437-2.6811 2.56787-3.4383 3.6879-.377.55768-1.3303 1.85893-.5763 3.16015l-.183-.0717c-.3281-.12129-.6977-.0037-.8921.2838l-.0559.0668-.0133-.1188c-.1026-.66225-.2822-2.32112.2126-3.50614.3732-.89377.6116-1.26688.808-1.54033.0266.02598.0729.02913.1104-.00999.5478-.57119 1.4417-1.60354 3.9482-2.10817z" fill="#8fca07"/></svg>